<?xml version="1.0" encoding="UTF-8"?>
<svg xmlns="http://www.w3.org/2000/svg" xmlns:xlink="http://www.w3.org/1999/xlink" width="307.26pt" height="170.72pt" viewBox="0 0 307.26 170.72" version="1.1">
<defs>
<clipPath id="clip1">
  <path d="M 52 107 L 84 107 L 84 170.71875 L 52 170.71875 Z M 52 107 "/>
</clipPath>
<clipPath id="clip2">
  <path d="M 282 144 L 307.261719 144 L 307.261719 170 L 282 170 Z M 282 144 "/>
</clipPath>
</defs>
<g id="surface1">
<path style=" stroke:none;fill-rule:evenodd;fill:rgb(61.199951%,74.899292%,25.498962%);fill-opacity:1;" d="M 75.851563 35.324219 C 75.957031 35.714844 76.039063 36.210938 75.964844 36.574219 C 75.8125 37.386719 74.921875 37.34375 74.554688 36.71875 C 74.078125 35.855469 73.78125 34.789063 73.4375 33.742188 C 73.195313 32.960938 72.902344 32.179688 72.609375 31.449219 C 72.421875 30.929688 72.261719 30.355469 72 29.886719 C 71.683594 29.339844 71.445313 29.417969 71.453125 30.097656 C 71.453125 30.28125 71.480469 30.488281 71.535156 30.777344 C 71.832031 32.316406 72.15625 33.832031 72.453125 35.371094 C 72.640625 36.179688 72.882813 36.988281 73.070313 37.800781 C 73.179688 38.609375 72.609375 39.109375 72.085938 38.902344 C 71.457031 38.671875 71.1875 37.390625 71.027344 36.84375 C 70.757813 35.929688 70.492188 34.914063 70.25 34.027344 C 70.03125 32.902344 69.765625 31.859375 69.367188 30.816406 C 69.125 30.242188 68.761719 30.351563 68.792969 31.082031 C 68.828125 32.257813 68.757813 33.644531 68.84375 34.792969 C 68.875 35.683594 69.222656 36.59375 69.121094 37.484375 C 69.074219 38.03125 68.839844 38.402344 68.554688 38.480469 C 67.613281 38.800781 67.339844 36.921875 67.261719 36.425781 C 67.121094 35.171875 67.109375 33.601563 66.945313 32.375 C 66.859375 31.253906 66.695313 30.105469 66.347656 28.980469 C 66.003906 28.175781 65.554688 27.863281 65.089844 28.363281 C 64.570313 28.914063 64.523438 29.804688 64.238281 30.511719 C 64.058594 30.984375 63.851563 31.402344 63.59375 31.742188 C 63.179688 32.296875 62.375 32.902344 61.640625 32.855469 C 61.09375 32.859375 60.804688 32.46875 61.136719 31.863281 C 61.523438 31.132813 61.914063 30.578125 62.167969 29.742188 C 62.476563 28.746094 62.703125 27.59375 63.011719 26.441406 C 63.46875 24.820313 64.265625 22.671875 65.382813 21.40625 C 65.980469 20.777344 66.683594 20.378906 67.492188 20.191406 C 68.71875 19.949219 69.867188 19.808594 70.808594 19.988281 C 72.222656 20.265625 72.988281 21.488281 73.570313 22.6875 C 74.128906 23.859375 74.660156 25.320313 75.191406 26.46875 C 76.140625 27.820313 77.011719 29.171875 77.964844 30.5 C 79.257813 32.765625 77.875 33.0625 77.085938 31.996094 C 76.636719 31.394531 76.34375 30.796875 75.949219 30.25 C 75.65625 29.835938 75.289063 29.445313 74.921875 29.027344 C 74.632813 28.664063 74.339844 28.300781 73.972656 28.042969 C 73.449219 27.628906 73.1875 27.707031 73.347656 28.386719 C 73.617188 29.402344 73.988281 30.34375 74.359375 31.359375 C 74.628906 32.089844 74.867188 32.898438 75.109375 33.628906 C 75.375 34.203125 75.613281 34.75 75.851563 35.324219 "/>
<path style=" stroke:none;fill-rule:evenodd;fill:rgb(17.999268%,64.299011%,86.698914%);fill-opacity:1;" d="M 130.941406 54.121094 C 130.894531 53.953125 130.859375 53.742188 130.890625 53.585938 C 130.957031 53.238281 131.335938 53.257813 131.496094 53.523438 C 131.699219 53.890625 131.824219 54.351563 131.972656 54.796875 C 132.074219 55.128906 132.199219 55.464844 132.324219 55.777344 C 132.402344 55.996094 132.472656 56.242188 132.585938 56.445313 C 132.722656 56.679688 132.820313 56.644531 132.820313 56.351563 C 132.820313 56.273438 132.808594 56.1875 132.785156 56.0625 C 132.65625 55.40625 132.519531 54.757813 132.390625 54.101563 C 132.3125 53.753906 132.210938 53.410156 132.128906 53.0625 C 132.078125 52.71875 132.324219 52.503906 132.546875 52.589844 C 132.816406 52.691406 132.933594 53.238281 133.003906 53.472656 C 133.113281 53.859375 133.230469 54.296875 133.335938 54.675781 C 133.425781 55.152344 133.539063 55.601563 133.710938 56.046875 C 133.8125 56.289063 133.96875 56.246094 133.957031 55.933594 C 133.941406 55.429688 133.972656 54.839844 133.9375 54.347656 C 133.921875 53.96875 133.773438 53.578125 133.816406 53.195313 C 133.835938 52.960938 133.9375 52.804688 134.058594 52.769531 C 134.460938 52.636719 134.578125 53.4375 134.609375 53.648438 C 134.671875 54.1875 134.675781 54.855469 134.746094 55.378906 C 134.78125 55.859375 134.851563 56.351563 135.003906 56.828125 C 135.148438 57.175781 135.339844 57.308594 135.539063 57.09375 C 135.761719 56.859375 135.78125 56.480469 135.902344 56.175781 C 135.980469 55.976563 136.066406 55.796875 136.175781 55.648438 C 136.355469 55.414063 136.699219 55.15625 137.011719 55.175781 C 137.246094 55.175781 137.371094 55.339844 137.226563 55.597656 C 137.0625 55.910156 136.894531 56.148438 136.785156 56.507813 C 136.652344 56.929688 136.558594 57.425781 136.425781 57.914063 C 136.230469 58.609375 135.890625 59.527344 135.414063 60.066406 C 135.160156 60.335938 134.855469 60.507813 134.511719 60.585938 C 133.988281 60.691406 133.496094 60.75 133.09375 60.675781 C 132.488281 60.554688 132.164063 60.03125 131.914063 59.519531 C 131.675781 59.019531 131.449219 58.394531 131.222656 57.90625 C 130.816406 57.328125 130.441406 56.75 130.039063 56.183594 C 129.484375 55.214844 130.074219 55.085938 130.414063 55.542969 C 130.605469 55.800781 130.730469 56.054688 130.898438 56.289063 C 131.023438 56.464844 131.179688 56.632813 131.339844 56.808594 C 131.460938 56.964844 131.585938 57.121094 131.742188 57.230469 C 131.964844 57.410156 132.078125 57.375 132.007813 57.085938 C 131.894531 56.648438 131.734375 56.25 131.578125 55.8125 C 131.464844 55.503906 131.359375 55.15625 131.257813 54.84375 C 131.144531 54.601563 131.042969 54.367188 130.941406 54.121094 "/>
<path style=" stroke:none;fill-rule:evenodd;fill:rgb(61.599731%,32.499695%,62.69989%);fill-opacity:1;" d="M 113.917969 37.019531 C 113.851563 36.769531 113.796875 36.449219 113.847656 36.214844 C 113.945313 35.695313 114.511719 35.726563 114.75 36.125 C 115.054688 36.675781 115.242188 37.359375 115.464844 38.027344 C 115.617188 38.53125 115.804688 39.03125 115.992188 39.496094 C 116.113281 39.832031 116.214844 40.199219 116.382813 40.496094 C 116.585938 40.847656 116.738281 40.796875 116.734375 40.363281 C 116.734375 40.246094 116.714844 40.109375 116.679688 39.925781 C 116.492188 38.941406 116.285156 37.972656 116.09375 36.988281 C 115.972656 36.46875 115.820313 35.953125 115.699219 35.433594 C 115.628906 34.917969 115.992188 34.597656 116.328125 34.726563 C 116.730469 34.875 116.902344 35.695313 117.007813 36.046875 C 117.179688 36.628906 117.347656 37.28125 117.503906 37.847656 C 117.640625 38.566406 117.816406 39.234375 118.070313 39.902344 C 118.222656 40.269531 118.457031 40.199219 118.4375 39.730469 C 118.414063 38.980469 118.460938 38.09375 118.402344 37.355469 C 118.382813 36.789063 118.160156 36.203125 118.226563 35.636719 C 118.257813 35.285156 118.40625 35.050781 118.589844 34.996094 C 119.191406 34.792969 119.363281 35.996094 119.417969 36.3125 C 119.507813 37.113281 119.511719 38.117188 119.617188 38.90625 C 119.671875 39.621094 119.777344 40.359375 120 41.078125 C 120.222656 41.59375 120.507813 41.792969 120.804688 41.472656 C 121.136719 41.117188 121.167969 40.550781 121.347656 40.097656 C 121.464844 39.796875 121.597656 39.527344 121.761719 39.308594 C 122.027344 38.957031 122.542969 38.566406 123.011719 38.597656 C 123.363281 38.59375 123.546875 38.84375 123.335938 39.230469 C 123.085938 39.699219 122.835938 40.054688 122.671875 40.589844 C 122.476563 41.226563 122.332031 41.964844 122.136719 42.699219 C 121.839844 43.738281 121.332031 45.113281 120.617188 45.921875 C 120.234375 46.328125 119.785156 46.578125 119.269531 46.699219 C 118.484375 46.855469 117.75 46.945313 117.144531 46.832031 C 116.242188 46.652344 115.75 45.871094 115.378906 45.105469 C 115.019531 44.355469 114.679688 43.417969 114.339844 42.6875 C 113.734375 41.820313 113.175781 40.953125 112.566406 40.105469 C 111.738281 38.65625 112.625 38.464844 113.128906 39.148438 C 113.417969 39.53125 113.605469 39.914063 113.855469 40.265625 C 114.042969 40.53125 114.277344 40.777344 114.515625 41.046875 C 114.699219 41.277344 114.886719 41.511719 115.121094 41.675781 C 115.457031 41.941406 115.625 41.890625 115.519531 41.457031 C 115.347656 40.804688 115.109375 40.203125 114.871094 39.554688 C 114.703125 39.085938 114.546875 38.570313 114.394531 38.101563 C 114.226563 37.734375 114.074219 37.386719 113.917969 37.019531 "/>
<path style=" stroke:none;fill-rule:evenodd;fill:rgb(61.599731%,32.499695%,62.69989%);fill-opacity:1;" d="M 89.445313 45.335938 C 89.359375 45.023438 89.292969 44.632813 89.355469 44.339844 C 89.476563 43.695313 90.179688 43.734375 90.476563 44.230469 C 90.851563 44.910156 91.085938 45.761719 91.363281 46.589844 C 91.554688 47.210938 91.785156 47.832031 92.019531 48.410156 C 92.167969 48.824219 92.292969 49.28125 92.503906 49.652344 C 92.753906 50.085938 92.941406 50.023438 92.9375 49.484375 C 92.9375 49.339844 92.914063 49.171875 92.871094 48.945313 C 92.636719 47.722656 92.378906 46.519531 92.140625 45.296875 C 91.992188 44.65625 91.800781 44.011719 91.652344 43.371094 C 91.566406 42.726563 92.019531 42.328125 92.433594 42.492188 C 92.933594 42.675781 93.148438 43.691406 93.277344 44.128906 C 93.488281 44.851563 93.703125 45.660156 93.890625 46.363281 C 94.066406 47.257813 94.277344 48.085938 94.59375 48.914063 C 94.785156 49.367188 95.074219 49.28125 95.050781 48.703125 C 95.023438 47.769531 95.078125 46.667969 95.011719 45.753906 C 94.984375 45.050781 94.710938 44.324219 94.789063 43.617188 C 94.828125 43.183594 95.011719 42.890625 95.238281 42.828125 C 95.984375 42.574219 96.203125 44.066406 96.265625 44.460938 C 96.378906 45.457031 96.386719 46.699219 96.515625 47.675781 C 96.585938 48.566406 96.714844 49.480469 96.992188 50.371094 C 97.265625 51.011719 97.621094 51.257813 97.992188 50.863281 C 98.402344 50.425781 98.441406 49.71875 98.664063 49.15625 C 98.808594 48.78125 98.972656 48.449219 99.175781 48.175781 C 99.507813 47.738281 100.144531 47.257813 100.726563 47.296875 C 101.164063 47.292969 101.394531 47.601563 101.128906 48.082031 C 100.820313 48.664063 100.511719 49.101563 100.308594 49.769531 C 100.0625 50.558594 99.882813 51.472656 99.640625 52.386719 C 99.277344 53.675781 98.644531 55.382813 97.757813 56.382813 C 97.28125 56.886719 96.722656 57.199219 96.082031 57.351563 C 95.109375 57.542969 94.195313 57.652344 93.449219 57.511719 C 92.324219 57.292969 91.714844 56.320313 91.253906 55.371094 C 90.8125 54.4375 90.390625 53.277344 89.96875 52.367188 C 89.214844 51.292969 88.523438 50.21875 87.769531 49.164063 C 86.738281 47.367188 87.835938 47.132813 88.464844 47.976563 C 88.820313 48.453125 89.054688 48.929688 89.367188 49.363281 C 89.597656 49.691406 89.890625 50.003906 90.183594 50.332031 C 90.414063 50.621094 90.644531 50.910156 90.933594 51.117188 C 91.351563 51.445313 91.558594 51.382813 91.433594 50.84375 C 91.21875 50.035156 90.921875 49.289063 90.628906 48.484375 C 90.417969 47.902344 90.226563 47.261719 90.035156 46.679688 C 89.824219 46.226563 89.632813 45.789063 89.445313 45.335938 "/>
<path style=" stroke:none;fill-rule:evenodd;fill:rgb(94.499207%,66.699219%,13.299561%);fill-opacity:1;" d="M 114.660156 63.535156 C 114.726563 63.777344 114.777344 64.085938 114.730469 64.3125 C 114.636719 64.816406 114.085938 64.785156 113.855469 64.398438 C 113.558594 63.867188 113.378906 63.203125 113.160156 62.558594 C 113.015625 62.074219 112.832031 61.589844 112.652344 61.136719 C 112.535156 60.8125 112.4375 60.457031 112.273438 60.164063 C 112.074219 59.828125 111.929688 59.878906 111.933594 60.296875 C 111.933594 60.410156 111.949219 60.539063 111.984375 60.71875 C 112.167969 61.671875 112.367188 62.613281 112.554688 63.566406 C 112.671875 64.066406 112.820313 64.566406 112.9375 65.070313 C 113.003906 65.570313 112.648438 65.882813 112.324219 65.753906 C 111.9375 65.609375 111.769531 64.816406 111.671875 64.480469 C 111.503906 63.914063 111.339844 63.28125 111.1875 62.730469 C 111.054688 62.035156 110.886719 61.390625 110.640625 60.742188 C 110.492188 60.390625 110.265625 60.453125 110.285156 60.910156 C 110.304688 61.636719 110.261719 62.496094 110.316406 63.207031 C 110.335938 63.757813 110.550781 64.324219 110.488281 64.875 C 110.460938 65.214844 110.3125 65.441406 110.136719 65.492188 C 109.554688 65.691406 109.386719 64.527344 109.335938 64.21875 C 109.246094 63.441406 109.242188 62.46875 109.140625 61.710938 C 109.085938 61.015625 108.984375 60.300781 108.769531 59.605469 C 108.554688 59.105469 108.28125 58.914063 107.992188 59.222656 C 107.667969 59.566406 107.640625 60.117188 107.464844 60.554688 C 107.351563 60.847656 107.226563 61.105469 107.0625 61.316406 C 106.808594 61.660156 106.308594 62.035156 105.855469 62.007813 C 105.515625 62.007813 105.335938 61.765625 105.542969 61.394531 C 105.78125 60.9375 106.023438 60.597656 106.183594 60.078125 C 106.371094 59.460938 106.511719 58.746094 106.703125 58.03125 C 106.988281 57.027344 107.480469 55.695313 108.171875 54.914063 C 108.542969 54.523438 108.976563 54.277344 109.480469 54.160156 C 110.238281 54.007813 110.953125 53.921875 111.535156 54.03125 C 112.410156 54.203125 112.886719 54.964844 113.246094 55.703125 C 113.59375 56.433594 113.921875 57.335938 114.25 58.046875 C 114.839844 58.886719 115.378906 59.726563 115.96875 60.546875 C 116.769531 61.949219 115.914063 62.136719 115.421875 61.472656 C 115.144531 61.101563 114.964844 60.730469 114.71875 60.394531 C 114.539063 60.136719 114.3125 59.894531 114.082031 59.636719 C 113.902344 59.410156 113.722656 59.183594 113.496094 59.023438 C 113.171875 58.765625 113.007813 58.816406 113.109375 59.238281 C 113.273438 59.867188 113.503906 60.449219 113.738281 61.078125 C 113.902344 61.53125 114.050781 62.035156 114.199219 62.484375 C 114.363281 62.839844 114.511719 63.179688 114.660156 63.535156 "/>
<path style=" stroke:none;fill-rule:evenodd;fill:rgb(61.599731%,32.499695%,62.69989%);fill-opacity:1;" d="M 121.609375 79.664063 C 121.675781 79.90625 121.726563 80.210938 121.679688 80.441406 C 121.585938 80.941406 121.035156 80.914063 120.804688 80.527344 C 120.511719 79.996094 120.328125 79.332031 120.113281 78.683594 C 119.964844 78.199219 119.785156 77.714844 119.601563 77.261719 C 119.488281 76.941406 119.386719 76.585938 119.222656 76.292969 C 119.027344 75.957031 118.882813 76.003906 118.882813 76.425781 C 118.882813 76.539063 118.902344 76.667969 118.9375 76.847656 C 119.121094 77.800781 119.320313 78.738281 119.507813 79.695313 C 119.621094 80.195313 119.769531 80.695313 119.886719 81.195313 C 119.957031 81.699219 119.601563 82.007813 119.277344 81.882813 C 118.886719 81.738281 118.71875 80.945313 118.621094 80.605469 C 118.453125 80.039063 118.289063 79.410156 118.140625 78.859375 C 118.007813 78.164063 117.839844 77.515625 117.59375 76.871094 C 117.441406 76.515625 117.21875 76.582031 117.234375 77.035156 C 117.257813 77.765625 117.214844 78.625 117.269531 79.335938 C 117.289063 79.886719 117.503906 80.453125 117.441406 81.003906 C 117.410156 81.34375 117.265625 81.570313 117.089844 81.621094 C 116.507813 81.820313 116.335938 80.652344 116.285156 80.347656 C 116.199219 79.570313 116.195313 78.597656 116.09375 77.835938 C 116.039063 77.140625 115.9375 76.429688 115.722656 75.734375 C 115.507813 75.230469 115.230469 75.039063 114.941406 75.351563 C 114.621094 75.691406 114.589844 76.242188 114.414063 76.679688 C 114.304688 76.972656 114.175781 77.234375 114.015625 77.445313 C 113.757813 77.789063 113.257813 78.164063 112.804688 78.132813 C 112.464844 78.136719 112.285156 77.894531 112.492188 77.519531 C 112.734375 77.066406 112.976563 76.722656 113.132813 76.203125 C 113.324219 75.585938 113.464844 74.875 113.652344 74.160156 C 113.9375 73.15625 114.433594 71.824219 115.125 71.039063 C 115.492188 70.648438 115.929688 70.402344 116.429688 70.285156 C 117.191406 70.136719 117.902344 70.050781 118.484375 70.160156 C 119.363281 70.332031 119.839844 71.089844 120.199219 71.832031 C 120.542969 72.558594 120.871094 73.464844 121.203125 74.175781 C 121.789063 75.011719 122.332031 75.851563 122.921875 76.675781 C 123.722656 78.078125 122.863281 78.261719 122.375 77.601563 C 122.097656 77.230469 121.914063 76.859375 121.671875 76.519531 C 121.492188 76.261719 121.261719 76.019531 121.035156 75.765625 C 120.855469 75.539063 120.675781 75.3125 120.445313 75.152344 C 120.121094 74.894531 119.960938 74.945313 120.058594 75.367188 C 120.226563 75.996094 120.457031 76.578125 120.6875 77.207031 C 120.851563 77.660156 121.003906 78.160156 121.148438 78.613281 C 121.316406 78.96875 121.464844 79.308594 121.609375 79.664063 "/>
<path style=" stroke:none;fill-rule:evenodd;fill:rgb(95.298767%,65.499878%,12.199402%);fill-opacity:1;" d="M 89.785156 26.175781 C 89.703125 25.886719 89.644531 25.519531 89.699219 25.253906 C 89.8125 24.652344 90.46875 24.6875 90.742188 25.148438 C 91.09375 25.78125 91.308594 26.570313 91.566406 27.34375 C 91.746094 27.921875 91.960938 28.5 92.175781 29.039063 C 92.3125 29.421875 92.433594 29.84375 92.628906 30.191406 C 92.863281 30.597656 93.035156 30.535156 93.03125 30.035156 C 93.03125 29.898438 93.011719 29.746094 92.972656 29.535156 C 92.75 28.398438 92.511719 27.277344 92.292969 26.140625 C 92.152344 25.542969 91.976563 24.945313 91.835938 24.347656 C 91.753906 23.75 92.175781 23.382813 92.566406 23.53125 C 93.03125 23.703125 93.226563 24.648438 93.347656 25.050781 C 93.546875 25.726563 93.742188 26.480469 93.921875 27.132813 C 94.082031 27.964844 94.28125 28.734375 94.574219 29.503906 C 94.75 29.925781 95.019531 29.847656 94.996094 29.308594 C 94.972656 28.441406 95.023438 27.414063 94.960938 26.566406 C 94.933594 25.910156 94.679688 25.238281 94.753906 24.582031 C 94.789063 24.175781 94.960938 23.902344 95.171875 23.84375 C 95.867188 23.605469 96.070313 24.996094 96.128906 25.363281 C 96.230469 26.289063 96.238281 27.445313 96.363281 28.355469 C 96.425781 29.183594 96.546875 30.03125 96.800781 30.859375 C 97.058594 31.457031 97.386719 31.6875 97.730469 31.316406 C 98.117188 30.910156 98.148438 30.253906 98.359375 29.730469 C 98.492188 29.382813 98.644531 29.070313 98.835938 28.820313 C 99.140625 28.410156 99.738281 27.964844 100.277344 28 C 100.683594 27.996094 100.898438 28.285156 100.648438 28.730469 C 100.363281 29.273438 100.078125 29.679688 99.886719 30.300781 C 99.660156 31.035156 99.492188 31.882813 99.265625 32.734375 C 98.925781 33.933594 98.339844 35.523438 97.515625 36.453125 C 97.074219 36.921875 96.554688 37.214844 95.957031 37.351563 C 95.050781 37.53125 94.203125 37.632813 93.507813 37.503906 C 92.464844 37.296875 91.898438 36.394531 91.464844 35.507813 C 91.054688 34.644531 90.664063 33.566406 90.269531 32.71875 C 89.570313 31.71875 88.925781 30.71875 88.222656 29.738281 C 87.265625 28.066406 88.289063 27.847656 88.875 28.632813 C 89.203125 29.074219 89.417969 29.519531 89.710938 29.921875 C 89.925781 30.230469 90.199219 30.519531 90.46875 30.824219 C 90.683594 31.09375 90.898438 31.363281 91.171875 31.550781 C 91.558594 31.859375 91.75 31.800781 91.632813 31.300781 C 91.433594 30.546875 91.160156 29.855469 90.882813 29.105469 C 90.6875 28.566406 90.511719 27.96875 90.332031 27.425781 C 90.136719 27.003906 89.960938 26.601563 89.785156 26.175781 "/>
<path style=" stroke:none;fill-rule:evenodd;fill:rgb(61.599731%,32.499695%,62.69989%);fill-opacity:1;" d="M 22.769531 88.222656 C 22.667969 87.863281 22.597656 87.410156 22.664063 87.074219 C 22.804688 86.328125 23.617188 86.371094 23.957031 86.945313 C 24.394531 87.734375 24.664063 88.710938 24.980469 89.667969 C 25.203125 90.386719 25.472656 91.105469 25.738281 91.773438 C 25.910156 92.25 26.058594 92.777344 26.300781 93.207031 C 26.589844 93.707031 26.804688 93.632813 26.800781 93.011719 C 26.800781 92.84375 26.773438 92.652344 26.726563 92.386719 C 26.453125 90.976563 26.15625 89.589844 25.882813 88.175781 C 25.710938 87.4375 25.488281 86.695313 25.316406 85.953125 C 25.214844 85.210938 25.742188 84.753906 26.222656 84.941406 C 26.796875 85.152344 27.042969 86.328125 27.191406 86.828125 C 27.4375 87.664063 27.683594 88.597656 27.902344 89.410156 C 28.101563 90.441406 28.347656 91.398438 28.714844 92.351563 C 28.933594 92.875 29.265625 92.78125 29.238281 92.109375 C 29.207031 91.03125 29.269531 89.761719 29.191406 88.707031 C 29.164063 87.890625 28.847656 87.054688 28.9375 86.242188 C 28.980469 85.738281 29.195313 85.402344 29.457031 85.328125 C 30.316406 85.035156 30.570313 86.757813 30.644531 87.210938 C 30.769531 88.363281 30.78125 89.796875 30.933594 90.921875 C 31.011719 91.953125 31.160156 93.003906 31.480469 94.035156 C 31.796875 94.773438 32.207031 95.058594 32.632813 94.601563 C 33.109375 94.09375 33.152344 93.28125 33.410156 92.632813 C 33.578125 92.199219 33.765625 91.816406 34 91.5 C 34.382813 90.996094 35.121094 90.441406 35.792969 90.484375 C 36.292969 90.480469 36.5625 90.835938 36.253906 91.390625 C 35.898438 92.066406 35.542969 92.570313 35.308594 93.335938 C 35.027344 94.25 34.816406 95.304688 34.539063 96.363281 C 34.117188 97.851563 33.386719 99.820313 32.363281 100.976563 C 31.816406 101.554688 31.171875 101.917969 30.429688 102.089844 C 29.304688 102.3125 28.253906 102.441406 27.390625 102.277344 C 26.09375 102.023438 25.394531 100.902344 24.859375 99.804688 C 24.347656 98.730469 23.859375 97.390625 23.371094 96.339844 C 22.503906 95.097656 21.707031 93.859375 20.835938 92.644531 C 19.644531 90.566406 20.914063 90.292969 21.640625 91.273438 C 22.050781 91.820313 22.316406 92.371094 22.679688 92.871094 C 22.945313 93.253906 23.285156 93.609375 23.621094 93.992188 C 23.886719 94.324219 24.152344 94.65625 24.488281 94.894531 C 24.972656 95.277344 25.210938 95.203125 25.0625 94.578125 C 24.816406 93.648438 24.476563 92.785156 24.132813 91.855469 C 23.890625 91.183594 23.667969 90.445313 23.449219 89.777344 C 23.207031 89.25 22.988281 88.746094 22.769531 88.222656 "/>
<path style=" stroke:none;fill-rule:evenodd;fill:rgb(92.498779%,6.298828%,53.29895%);fill-opacity:1;" d="M 81 84.613281 C 81.132813 85.097656 81.234375 85.714844 81.140625 86.171875 C 80.953125 87.175781 79.851563 87.117188 79.390625 86.34375 C 78.800781 85.277344 78.433594 83.949219 78.003906 82.65625 C 77.707031 81.683594 77.34375 80.714844 76.980469 79.804688 C 76.75 79.160156 76.550781 78.449219 76.222656 77.863281 C 75.828125 77.1875 75.535156 77.285156 75.542969 78.128906 C 75.542969 78.355469 75.578125 78.613281 75.644531 78.972656 C 76.011719 80.882813 76.417969 82.761719 76.785156 84.671875 C 77.019531 85.675781 77.316406 86.679688 77.550781 87.683594 C 77.6875 88.691406 76.976563 89.3125 76.328125 89.054688 C 75.546875 88.769531 75.210938 87.179688 75.011719 86.503906 C 74.679688 85.367188 74.347656 84.105469 74.050781 83.003906 C 73.78125 81.613281 73.449219 80.316406 72.953125 79.023438 C 72.65625 78.308594 72.203125 78.445313 72.242188 79.351563 C 72.285156 80.8125 72.199219 82.53125 72.304688 83.957031 C 72.34375 85.058594 72.773438 86.191406 72.652344 87.296875 C 72.589844 87.976563 72.300781 88.433594 71.945313 88.53125 C 70.78125 88.929688 70.441406 86.597656 70.339844 85.980469 C 70.167969 84.425781 70.152344 82.480469 69.949219 80.957031 C 69.84375 79.5625 69.636719 78.136719 69.207031 76.742188 C 68.78125 75.742188 68.226563 75.355469 67.644531 75.976563 C 67 76.660156 66.945313 77.765625 66.59375 78.644531 C 66.371094 79.226563 66.113281 79.75 65.792969 80.171875 C 65.277344 80.855469 64.277344 81.609375 63.367188 81.550781 C 62.6875 81.554688 62.328125 81.070313 62.742188 80.320313 C 63.222656 79.410156 63.707031 78.726563 64.023438 77.6875 C 64.40625 76.449219 64.6875 75.023438 65.066406 73.59375 C 65.636719 71.578125 66.625 68.910156 68.011719 67.34375 C 68.75 66.5625 69.625 66.070313 70.628906 65.835938 C 72.148438 65.535156 73.574219 65.363281 74.746094 65.582031 C 76.5 65.925781 77.449219 67.445313 78.171875 68.933594 C 78.863281 70.386719 79.527344 72.199219 80.183594 73.625 C 81.363281 75.300781 82.445313 76.980469 83.621094 78.628906 C 85.230469 81.4375 83.511719 81.808594 82.53125 80.484375 C 81.976563 79.742188 81.613281 78.996094 81.121094 78.320313 C 80.761719 77.804688 80.304688 77.320313 79.847656 76.804688 C 79.488281 76.351563 79.128906 75.898438 78.671875 75.578125 C 78.019531 75.0625 77.695313 75.164063 77.898438 76.007813 C 78.226563 77.269531 78.691406 78.433594 79.152344 79.695313 C 79.480469 80.601563 79.78125 81.605469 80.078125 82.511719 C 80.410156 83.222656 80.707031 83.902344 81 84.613281 "/>
<path style=" stroke:none;fill-rule:evenodd;fill:rgb(92.498779%,6.298828%,53.29895%);fill-opacity:1;" d="M 43.246094 39.050781 C 43.203125 38.832031 43.183594 38.5625 43.238281 38.367188 C 43.359375 37.933594 43.835938 38 44.007813 38.351563 C 44.230469 38.839844 44.339844 39.429688 44.480469 40.011719 C 44.578125 40.445313 44.699219 40.882813 44.824219 41.289063 C 44.902344 41.578125 44.964844 41.898438 45.085938 42.160156 C 45.234375 42.472656 45.363281 42.4375 45.390625 42.070313 C 45.398438 41.972656 45.394531 41.859375 45.375 41.699219 C 45.285156 40.855469 45.175781 40.019531 45.085938 39.175781 C 45.019531 38.730469 44.925781 38.28125 44.859375 37.835938 C 44.835938 37.390625 45.167969 37.148438 45.441406 37.28125 C 45.773438 37.433594 45.859375 38.140625 45.921875 38.441406 C 46.027344 38.949219 46.125 39.511719 46.21875 40 C 46.285156 40.617188 46.382813 41.195313 46.550781 41.777344 C 46.65625 42.097656 46.855469 42.054688 46.871094 41.65625 C 46.90625 41.019531 47.007813 40.273438 47.011719 39.648438 C 47.035156 39.167969 46.886719 38.65625 46.980469 38.179688 C 47.03125 37.886719 47.171875 37.695313 47.332031 37.667969 C 47.855469 37.535156 47.917969 38.566406 47.941406 38.835938 C 47.960938 39.519531 47.894531 40.371094 47.929688 41.039063 C 47.925781 41.652344 47.964844 42.28125 48.101563 42.902344 C 48.253906 43.355469 48.480469 43.542969 48.753906 43.292969 C 49.058594 43.019531 49.125 42.539063 49.308594 42.171875 C 49.429688 41.921875 49.558594 41.703125 49.714844 41.53125 C 49.960938 41.253906 50.425781 40.960938 50.820313 41.019531 C 51.117188 41.039063 51.257813 41.265625 51.046875 41.578125 C 50.804688 41.957031 50.570313 42.238281 50.394531 42.679688 C 50.183594 43.203125 50.011719 43.816406 49.792969 44.425781 C 49.472656 45.285156 48.945313 46.410156 48.285156 47.042969 C 47.933594 47.355469 47.535156 47.539063 47.089844 47.605469 C 46.414063 47.683594 45.789063 47.707031 45.285156 47.570313 C 44.535156 47.355469 44.175781 46.660156 43.914063 45.984375 C 43.664063 45.324219 43.441406 44.511719 43.207031 43.867188 C 42.753906 43.09375 42.34375 42.324219 41.886719 41.5625 C 41.289063 40.28125 42.050781 40.183594 42.429688 40.792969 C 42.644531 41.136719 42.777344 41.476563 42.964844 41.789063 C 43.105469 42.027344 43.285156 42.253906 43.46875 42.496094 C 43.609375 42.703125 43.746094 42.914063 43.9375 43.070313 C 44.203125 43.320313 44.347656 43.285156 44.289063 42.910156 C 44.1875 42.351563 44.03125 41.824219 43.875 41.261719 C 43.761719 40.851563 43.667969 40.40625 43.570313 40 C 43.453125 39.675781 43.347656 39.371094 43.246094 39.050781 "/>
<path style=" stroke:none;fill-rule:evenodd;fill:rgb(61.199951%,74.899292%,25.498962%);fill-opacity:1;" d="M 77.359375 93.996094 C 77.300781 93.78125 77.257813 93.515625 77.296875 93.3125 C 77.382813 92.875 77.863281 92.898438 78.066406 93.238281 C 78.324219 93.703125 78.484375 94.285156 78.671875 94.851563 C 78.800781 95.277344 78.960938 95.699219 79.117188 96.097656 C 79.21875 96.382813 79.304688 96.691406 79.449219 96.945313 C 79.621094 97.242188 79.75 97.199219 79.746094 96.828125 C 79.746094 96.730469 79.730469 96.617188 79.703125 96.460938 C 79.542969 95.625 79.367188 94.804688 79.203125 93.96875 C 79.101563 93.53125 78.96875 93.09375 78.867188 92.652344 C 78.808594 92.214844 79.121094 91.941406 79.402344 92.054688 C 79.746094 92.179688 79.890625 92.871094 79.980469 93.167969 C 80.125 93.664063 80.269531 94.21875 80.402344 94.699219 C 80.519531 95.308594 80.664063 95.875 80.878906 96.441406 C 81.011719 96.75 81.207031 96.691406 81.191406 96.296875 C 81.171875 95.65625 81.210938 94.90625 81.164063 94.28125 C 81.148438 93.800781 80.957031 93.304688 81.011719 92.820313 C 81.039063 92.523438 81.164063 92.324219 81.320313 92.28125 C 81.832031 92.105469 81.980469 93.128906 82.023438 93.398438 C 82.097656 94.078125 82.105469 94.929688 82.191406 95.59375 C 82.238281 96.203125 82.328125 96.828125 82.519531 97.4375 C 82.703125 97.875 82.945313 98.042969 83.199219 97.773438 C 83.480469 97.472656 83.507813 96.988281 83.660156 96.605469 C 83.757813 96.351563 83.871094 96.121094 84.011719 95.9375 C 84.234375 95.636719 84.671875 95.308594 85.070313 95.332031 C 85.367188 95.332031 85.527344 95.542969 85.34375 95.871094 C 85.132813 96.269531 84.921875 96.570313 84.785156 97.023438 C 84.617188 97.5625 84.496094 98.1875 84.328125 98.8125 C 84.078125 99.695313 83.648438 100.859375 83.042969 101.546875 C 82.71875 101.890625 82.335938 102.105469 81.898438 102.207031 C 81.230469 102.339844 80.609375 102.414063 80.09375 102.316406 C 79.328125 102.164063 78.914063 101.5 78.597656 100.851563 C 78.292969 100.214844 78.007813 99.421875 77.71875 98.800781 C 77.203125 98.066406 76.730469 97.332031 76.214844 96.613281 C 75.511719 95.382813 76.261719 95.222656 76.691406 95.800781 C 76.933594 96.125 77.09375 96.449219 77.308594 96.746094 C 77.464844 96.972656 77.664063 97.183594 77.863281 97.410156 C 78.023438 97.609375 78.179688 97.804688 78.378906 97.945313 C 78.664063 98.171875 78.804688 98.128906 78.71875 97.757813 C 78.574219 97.207031 78.371094 96.695313 78.167969 96.144531 C 78.023438 95.75 77.894531 95.308594 77.765625 94.914063 C 77.621094 94.601563 77.488281 94.308594 77.359375 93.996094 "/>
<path style=" stroke:none;fill-rule:evenodd;fill:rgb(61.199951%,74.899292%,25.498962%);fill-opacity:1;" d="M 51.5625 59.546875 C 51.503906 59.332031 51.460938 59.0625 51.5 58.863281 C 51.582031 58.425781 52.066406 58.449219 52.265625 58.789063 C 52.523438 59.253906 52.683594 59.835938 52.871094 60.398438 C 53.003906 60.824219 53.160156 61.25 53.320313 61.644531 C 53.421875 61.929688 53.507813 62.242188 53.652344 62.496094 C 53.824219 62.789063 53.953125 62.746094 53.949219 62.378906 C 53.949219 62.28125 53.933594 62.167969 53.90625 62.011719 C 53.742188 61.175781 53.566406 60.355469 53.40625 59.519531 C 53.304688 59.078125 53.171875 58.640625 53.070313 58.199219 C 53.011719 57.761719 53.320313 57.488281 53.605469 57.601563 C 53.945313 57.726563 54.09375 58.421875 54.179688 58.71875 C 54.324219 59.214844 54.46875 59.765625 54.601563 60.246094 C 54.71875 60.855469 54.863281 61.421875 55.082031 61.988281 C 55.210938 62.300781 55.410156 62.242188 55.394531 61.84375 C 55.375 61.207031 55.410156 60.453125 55.367188 59.832031 C 55.347656 59.347656 55.160156 58.855469 55.214844 58.371094 C 55.238281 58.074219 55.367188 57.875 55.523438 57.828125 C 56.03125 57.65625 56.179688 58.675781 56.222656 58.945313 C 56.300781 59.628906 56.304688 60.476563 56.394531 61.144531 C 56.441406 61.753906 56.53125 62.378906 56.71875 62.984375 C 56.90625 63.425781 57.148438 63.589844 57.402344 63.320313 C 57.683594 63.023438 57.707031 62.539063 57.863281 62.15625 C 57.960938 61.898438 58.070313 61.671875 58.210938 61.484375 C 58.4375 61.1875 58.875 60.855469 59.273438 60.882813 C 59.570313 60.882813 59.726563 61.09375 59.542969 61.421875 C 59.335938 61.816406 59.125 62.117188 58.984375 62.574219 C 58.820313 63.113281 58.695313 63.738281 58.53125 64.363281 C 58.28125 65.242188 57.847656 66.410156 57.242188 67.09375 C 56.917969 67.4375 56.535156 67.652344 56.097656 67.753906 C 55.433594 67.886719 54.808594 67.960938 54.296875 67.867188 C 53.53125 67.714844 53.113281 67.050781 52.796875 66.402344 C 52.496094 65.765625 52.207031 64.972656 51.917969 64.351563 C 51.402344 63.617188 50.929688 62.882813 50.414063 62.160156 C 49.710938 60.933594 50.464844 60.773438 50.894531 61.351563 C 51.136719 61.675781 51.292969 62 51.507813 62.296875 C 51.667969 62.523438 51.867188 62.730469 52.066406 62.960938 C 52.222656 63.15625 52.382813 63.355469 52.582031 63.496094 C 52.867188 63.71875 53.007813 63.675781 52.917969 63.308594 C 52.773438 62.757813 52.574219 62.246094 52.371094 61.695313 C 52.226563 61.300781 52.09375 60.859375 51.964844 60.464844 C 51.820313 60.152344 51.691406 59.855469 51.5625 59.546875 "/>
<path style=" stroke:none;fill-rule:evenodd;fill:rgb(61.199951%,74.899292%,25.498962%);fill-opacity:1;" d="M 48.792969 97.648438 C 48.734375 97.433594 48.691406 97.167969 48.730469 96.96875 C 48.8125 96.527344 49.296875 96.554688 49.496094 96.890625 C 49.757813 97.359375 49.914063 97.9375 50.105469 98.503906 C 50.234375 98.929688 50.394531 99.351563 50.550781 99.75 C 50.652344 100.035156 50.738281 100.34375 50.882813 100.597656 C 51.054688 100.894531 51.183594 100.851563 51.179688 100.484375 C 51.179688 100.382813 51.164063 100.269531 51.136719 100.113281 C 50.972656 99.277344 50.796875 98.457031 50.636719 97.621094 C 50.535156 97.183594 50.402344 96.746094 50.300781 96.304688 C 50.242188 95.863281 50.550781 95.59375 50.835938 95.707031 C 51.179688 95.832031 51.324219 96.523438 51.410156 96.820313 C 51.558594 97.316406 51.703125 97.871094 51.832031 98.351563 C 51.949219 98.960938 52.097656 99.527344 52.3125 100.09375 C 52.441406 100.402344 52.640625 100.347656 52.625 99.949219 C 52.605469 99.3125 52.644531 98.558594 52.597656 97.933594 C 52.578125 97.453125 52.390625 96.957031 52.445313 96.476563 C 52.472656 96.175781 52.597656 95.976563 52.753906 95.933594 C 53.261719 95.761719 53.410156 96.78125 53.457031 97.050781 C 53.53125 97.730469 53.539063 98.582031 53.625 99.25 C 53.671875 99.855469 53.761719 100.480469 53.949219 101.089844 C 54.136719 101.527344 54.378906 101.695313 54.632813 101.425781 C 54.914063 101.125 54.941406 100.644531 55.09375 100.257813 C 55.191406 100.003906 55.304688 99.773438 55.445313 99.589844 C 55.667969 99.292969 56.105469 98.960938 56.503906 98.988281 C 56.800781 98.984375 56.960938 99.195313 56.777344 99.523438 C 56.566406 99.921875 56.355469 100.222656 56.214844 100.675781 C 56.050781 101.21875 55.925781 101.84375 55.761719 102.46875 C 55.511719 103.347656 55.078125 104.511719 54.472656 105.199219 C 54.148438 105.542969 53.769531 105.757813 53.328125 105.859375 C 52.664063 105.992188 52.039063 106.066406 51.527344 105.96875 C 50.761719 105.820313 50.347656 105.15625 50.03125 104.503906 C 49.726563 103.871094 49.4375 103.078125 49.152344 102.453125 C 48.636719 101.71875 48.164063 100.984375 47.648438 100.265625 C 46.945313 99.035156 47.695313 98.875 48.125 99.453125 C 48.367188 99.777344 48.527344 100.105469 48.738281 100.398438 C 48.898438 100.625 49.097656 100.835938 49.296875 101.0625 C 49.457031 101.261719 49.613281 101.457031 49.8125 101.597656 C 50.097656 101.824219 50.238281 101.78125 50.152344 101.414063 C 50.003906 100.859375 49.804688 100.351563 49.601563 99.796875 C 49.457031 99.402344 49.328125 98.964844 49.195313 98.566406 C 49.050781 98.257813 48.921875 97.960938 48.792969 97.648438 "/>
<path style=" stroke:none;fill-rule:evenodd;fill:rgb(17.999268%,64.299011%,86.698914%);fill-opacity:1;" d="M 38.351563 116.082031 C 38.292969 115.871094 38.25 115.601563 38.289063 115.402344 C 38.371094 114.960938 38.855469 114.988281 39.054688 115.328125 C 39.316406 115.792969 39.476563 116.375 39.660156 116.941406 C 39.792969 117.363281 39.953125 117.789063 40.109375 118.1875 C 40.210938 118.46875 40.296875 118.777344 40.441406 119.035156 C 40.613281 119.332031 40.742188 119.289063 40.738281 118.917969 C 40.738281 118.820313 40.722656 118.707031 40.695313 118.550781 C 40.53125 117.714844 40.355469 116.894531 40.195313 116.058594 C 40.09375 115.617188 39.964844 115.179688 39.859375 114.738281 C 39.800781 114.300781 40.109375 114.027344 40.394531 114.140625 C 40.734375 114.265625 40.882813 114.960938 40.972656 115.257813 C 41.117188 115.753906 41.261719 116.304688 41.390625 116.785156 C 41.507813 117.394531 41.65625 117.960938 41.871094 118.527344 C 42 118.839844 42.199219 118.78125 42.183594 118.386719 C 42.164063 117.746094 42.203125 116.992188 42.15625 116.371094 C 42.136719 115.890625 41.949219 115.394531 42.003906 114.910156 C 42.03125 114.613281 42.15625 114.414063 42.3125 114.371094 C 42.820313 114.195313 42.96875 115.21875 43.015625 115.484375 C 43.089844 116.164063 43.097656 117.015625 43.183594 117.683594 C 43.230469 118.292969 43.320313 118.914063 43.507813 119.523438 C 43.695313 119.960938 43.9375 120.128906 44.191406 119.859375 C 44.472656 119.5625 44.5 119.078125 44.652344 118.695313 C 44.75 118.4375 44.863281 118.210938 45.003906 118.023438 C 45.226563 117.726563 45.664063 117.394531 46.0625 117.421875 C 46.359375 117.421875 46.519531 117.632813 46.335938 117.960938 C 46.125 118.359375 45.914063 118.65625 45.777344 119.113281 C 45.609375 119.652344 45.484375 120.277344 45.320313 120.902344 C 45.070313 121.785156 44.636719 122.949219 44.03125 123.632813 C 43.710938 123.976563 43.328125 124.191406 42.886719 124.292969 C 42.222656 124.425781 41.597656 124.5 41.089844 124.40625 C 40.320313 124.253906 39.90625 123.589844 39.589844 122.941406 C 39.285156 122.304688 38.996094 121.511719 38.710938 120.890625 C 38.195313 120.15625 37.722656 119.421875 37.207031 118.699219 C 36.503906 117.472656 37.253906 117.3125 37.683594 117.890625 C 37.925781 118.214844 38.085938 118.539063 38.296875 118.835938 C 38.457031 119.0625 38.65625 119.273438 38.855469 119.496094 C 39.015625 119.695313 39.171875 119.894531 39.371094 120.035156 C 39.65625 120.261719 39.796875 120.214844 39.710938 119.847656 C 39.5625 119.292969 39.363281 118.785156 39.160156 118.234375 C 39.015625 117.835938 38.886719 117.398438 38.753906 117.003906 C 38.613281 116.691406 38.480469 116.394531 38.351563 116.082031 "/>
<path style=" stroke:none;fill-rule:evenodd;fill:rgb(17.999268%,64.299011%,86.698914%);fill-opacity:1;" d="M 68.4375 46.585938 C 68.382813 46.371094 68.335938 46.105469 68.378906 45.90625 C 68.460938 45.464844 68.941406 45.488281 69.144531 45.828125 C 69.402344 46.296875 69.5625 46.878906 69.75 47.441406 C 69.878906 47.867188 70.039063 48.289063 70.199219 48.6875 C 70.296875 48.96875 70.386719 49.28125 70.53125 49.535156 C 70.703125 49.832031 70.828125 49.789063 70.828125 49.421875 C 70.828125 49.320313 70.8125 49.210938 70.78125 49.050781 C 70.621094 48.214844 70.445313 47.394531 70.285156 46.558594 C 70.179688 46.121094 70.050781 45.679688 69.949219 45.242188 C 69.890625 44.804688 70.199219 44.53125 70.484375 44.644531 C 70.824219 44.769531 70.972656 45.460938 71.058594 45.757813 C 71.203125 46.257813 71.347656 46.808594 71.480469 47.289063 C 71.597656 47.898438 71.742188 48.464844 71.960938 49.03125 C 72.089844 49.339844 72.285156 49.285156 72.269531 48.886719 C 72.253906 48.25 72.289063 47.496094 72.242188 46.871094 C 72.226563 46.390625 72.035156 45.894531 72.089844 45.414063 C 72.117188 45.113281 72.242188 44.914063 72.398438 44.871094 C 72.910156 44.699219 73.058594 45.71875 73.101563 45.984375 C 73.175781 46.667969 73.183594 47.519531 73.273438 48.183594 C 73.320313 48.796875 73.410156 49.417969 73.597656 50.027344 C 73.785156 50.464844 74.027344 50.632813 74.28125 50.363281 C 74.5625 50.0625 74.585938 49.582031 74.738281 49.195313 C 74.839844 48.941406 74.949219 48.710938 75.089844 48.527344 C 75.316406 48.226563 75.753906 47.898438 76.148438 47.925781 C 76.449219 47.921875 76.605469 48.132813 76.421875 48.460938 C 76.214844 48.859375 76.003906 49.160156 75.863281 49.613281 C 75.695313 50.15625 75.574219 50.78125 75.40625 51.402344 C 75.15625 52.285156 74.726563 53.453125 74.121094 54.136719 C 73.796875 54.480469 73.414063 54.691406 72.976563 54.796875 C 72.308594 54.925781 71.6875 55.003906 71.175781 54.90625 C 70.40625 54.757813 69.992188 54.09375 69.675781 53.441406 C 69.375 52.804688 69.085938 52.015625 68.796875 51.390625 C 68.28125 50.65625 67.808594 49.921875 67.292969 49.203125 C 66.589844 47.972656 67.339844 47.8125 67.769531 48.390625 C 68.015625 48.714844 68.171875 49.039063 68.386719 49.335938 C 68.542969 49.5625 68.742188 49.773438 68.945313 50 C 69.101563 50.199219 69.257813 50.394531 69.457031 50.535156 C 69.742188 50.761719 69.886719 50.71875 69.796875 50.351563 C 69.652344 49.796875 69.449219 49.289063 69.25 48.734375 C 69.101563 48.339844 68.972656 47.902344 68.84375 47.503906 C 68.699219 47.191406 68.570313 46.898438 68.4375 46.585938 "/>
<path style=" stroke:none;fill-rule:evenodd;fill:rgb(61.199951%,74.899292%,25.498962%);fill-opacity:1;" d="M 127.304688 75.949219 C 127.195313 75.546875 127.113281 75.039063 127.1875 74.664063 C 127.34375 73.835938 128.253906 73.882813 128.632813 74.523438 C 129.117188 75.402344 129.421875 76.496094 129.773438 77.5625 C 130.019531 78.363281 130.320313 79.160156 130.617188 79.90625 C 130.808594 80.441406 130.972656 81.027344 131.242188 81.507813 C 131.570313 82.066406 131.808594 81.984375 131.804688 81.289063 C 131.804688 81.105469 131.773438 80.890625 131.71875 80.597656 C 131.414063 79.019531 131.085938 77.472656 130.777344 75.898438 C 130.585938 75.070313 130.339844 74.242188 130.148438 73.417969 C 130.035156 72.589844 130.621094 72.074219 131.15625 72.285156 C 131.800781 72.523438 132.074219 73.832031 132.238281 74.390625 C 132.511719 75.324219 132.785156 76.367188 133.035156 77.273438 C 133.253906 78.421875 133.53125 79.488281 133.9375 80.554688 C 134.183594 81.140625 134.554688 81.03125 134.523438 80.285156 C 134.488281 79.082031 134.558594 77.664063 134.472656 76.488281 C 134.4375 75.578125 134.085938 74.648438 134.1875 73.738281 C 134.234375 73.175781 134.472656 72.800781 134.769531 72.71875 C 135.726563 72.390625 136.007813 74.3125 136.09375 74.820313 C 136.234375 76.101563 136.242188 77.707031 136.410156 78.960938 C 136.5 80.109375 136.667969 81.285156 137.023438 82.433594 C 137.378906 83.257813 137.832031 83.574219 138.3125 83.066406 C 138.84375 82.5 138.890625 81.59375 139.179688 80.867188 C 139.363281 80.386719 139.574219 79.957031 139.839844 79.605469 C 140.261719 79.042969 141.085938 78.421875 141.835938 78.472656 C 142.394531 78.46875 142.691406 78.867188 142.351563 79.484375 C 141.953125 80.234375 141.558594 80.800781 141.296875 81.65625 C 140.980469 82.671875 140.746094 83.851563 140.4375 85.027344 C 139.964844 86.6875 139.152344 88.886719 138.011719 90.175781 C 137.398438 90.824219 136.679688 91.226563 135.855469 91.421875 C 134.597656 91.671875 133.421875 91.8125 132.460938 91.628906 C 131.015625 91.34375 130.230469 90.09375 129.636719 88.867188 C 129.066406 87.671875 128.519531 86.175781 127.980469 85.003906 C 127.007813 83.621094 126.117188 82.238281 125.144531 80.878906 C 123.820313 78.5625 125.234375 78.261719 126.046875 79.351563 C 126.503906 79.964844 126.800781 80.574219 127.203125 81.132813 C 127.503906 81.558594 127.878906 81.957031 128.257813 82.382813 C 128.554688 82.753906 128.847656 83.128906 129.226563 83.394531 C 129.761719 83.816406 130.03125 83.734375 129.863281 83.039063 C 129.589844 82 129.210938 81.039063 128.828125 80 C 128.558594 79.253906 128.3125 78.425781 128.0625 77.679688 C 127.792969 77.09375 127.550781 76.535156 127.304688 75.949219 "/>
<path style=" stroke:none;fill-rule:evenodd;fill:rgb(17.999268%,64.299011%,86.698914%);fill-opacity:1;" d="M 28.324219 56.683594 C 28.265625 56.472656 28.21875 56.203125 28.261719 56.003906 C 28.34375 55.5625 28.824219 55.589844 29.027344 55.929688 C 29.285156 56.394531 29.445313 56.976563 29.632813 57.539063 C 29.765625 57.964844 29.921875 58.390625 30.082031 58.785156 C 30.183594 59.066406 30.269531 59.382813 30.414063 59.636719 C 30.585938 59.933594 30.710938 59.886719 30.710938 59.519531 C 30.710938 59.421875 30.695313 59.308594 30.664063 59.152344 C 30.503906 58.316406 30.328125 57.492188 30.167969 56.65625 C 30.0625 56.21875 29.933594 55.78125 29.832031 55.339844 C 29.773438 54.902344 30.082031 54.628906 30.367188 54.742188 C 30.707031 54.867188 30.855469 55.558594 30.941406 55.859375 C 31.085938 56.351563 31.230469 56.90625 31.363281 57.386719 C 31.480469 57.996094 31.625 58.5625 31.84375 59.128906 C 31.972656 59.441406 32.171875 59.382813 32.15625 58.984375 C 32.136719 58.347656 32.171875 57.59375 32.125 56.972656 C 32.109375 56.488281 31.921875 55.992188 31.972656 55.511719 C 32 55.214844 32.128906 55.015625 32.28125 54.96875 C 32.792969 54.796875 32.941406 55.816406 32.984375 56.085938 C 33.0625 56.765625 33.066406 57.617188 33.15625 58.285156 C 33.203125 58.894531 33.292969 59.515625 33.480469 60.125 C 33.667969 60.5625 33.910156 60.730469 34.164063 60.460938 C 34.445313 60.160156 34.46875 59.679688 34.621094 59.296875 C 34.722656 59.039063 34.832031 58.8125 34.972656 58.625 C 35.199219 58.328125 35.636719 57.996094 36.03125 58.023438 C 36.332031 58.019531 36.488281 58.234375 36.308594 58.558594 C 36.097656 58.960938 35.886719 59.257813 35.746094 59.714844 C 35.582031 60.253906 35.457031 60.878906 35.289063 61.503906 C 35.039063 62.382813 34.609375 63.550781 34.003906 64.234375 C 33.679688 64.578125 33.296875 64.792969 32.859375 64.894531 C 32.195313 65.027344 31.570313 65.101563 31.058594 65.007813 C 30.289063 64.855469 29.875 64.191406 29.558594 63.539063 C 29.257813 62.90625 28.96875 62.113281 28.679688 61.488281 C 28.164063 60.757813 27.695313 60.023438 27.175781 59.300781 C 26.472656 58.070313 27.222656 57.910156 27.65625 58.488281 C 27.898438 58.8125 28.054688 59.140625 28.269531 59.4375 C 28.425781 59.660156 28.628906 59.871094 28.828125 60.097656 C 28.984375 60.296875 29.140625 60.492188 29.34375 60.636719 C 29.628906 60.859375 29.769531 60.816406 29.679688 60.449219 C 29.535156 59.894531 29.332031 59.386719 29.132813 58.835938 C 28.988281 58.4375 28.855469 58 28.726563 57.601563 C 28.582031 57.292969 28.453125 56.996094 28.324219 56.683594 "/>
<path style=" stroke:none;fill-rule:evenodd;fill:rgb(92.498779%,6.298828%,53.29895%);fill-opacity:1;" d="M 99.394531 72.8125 C 99.335938 72.597656 99.289063 72.328125 99.332031 72.128906 C 99.414063 71.691406 99.898438 71.714844 100.097656 72.054688 C 100.355469 72.519531 100.515625 73.101563 100.703125 73.667969 C 100.835938 74.09375 100.992188 74.515625 101.152344 74.914063 C 101.253906 75.195313 101.339844 75.507813 101.484375 75.761719 C 101.65625 76.058594 101.785156 76.015625 101.78125 75.644531 C 101.78125 75.546875 101.765625 75.433594 101.734375 75.277344 C 101.574219 74.441406 101.398438 73.621094 101.238281 72.785156 C 101.136719 72.347656 101.003906 71.90625 100.902344 71.46875 C 100.84375 71.027344 101.152344 70.757813 101.4375 70.867188 C 101.777344 70.996094 101.925781 71.6875 102.011719 71.984375 C 102.15625 72.480469 102.304688 73.03125 102.433594 73.515625 C 102.550781 74.121094 102.695313 74.691406 102.914063 75.257813 C 103.042969 75.566406 103.242188 75.507813 103.226563 75.113281 C 103.207031 74.472656 103.242188 73.722656 103.195313 73.097656 C 103.179688 72.617188 102.992188 72.121094 103.046875 71.636719 C 103.070313 71.339844 103.199219 71.140625 103.355469 71.097656 C 103.863281 70.921875 104.011719 71.945313 104.058594 72.210938 C 104.132813 72.894531 104.136719 73.746094 104.226563 74.410156 C 104.273438 75.019531 104.363281 75.644531 104.550781 76.253906 C 104.738281 76.691406 104.980469 76.859375 105.234375 76.589844 C 105.515625 76.289063 105.539063 75.804688 105.695313 75.421875 C 105.792969 75.164063 105.90625 74.9375 106.046875 74.753906 C 106.269531 74.453125 106.707031 74.125 107.105469 74.148438 C 107.402344 74.148438 107.558594 74.359375 107.378906 74.6875 C 107.167969 75.085938 106.957031 75.386719 106.816406 75.839844 C 106.652344 76.378906 106.527344 77.003906 106.363281 77.628906 C 106.113281 78.511719 105.679688 79.675781 105.074219 80.363281 C 104.75 80.703125 104.367188 80.917969 103.929688 81.023438 C 103.265625 81.15625 102.640625 81.230469 102.128906 81.132813 C 101.363281 80.980469 100.945313 80.320313 100.632813 79.667969 C 100.328125 79.03125 100.039063 78.238281 99.753906 77.617188 C 99.234375 76.882813 98.765625 76.148438 98.246094 75.429688 C 97.542969 74.199219 98.296875 74.039063 98.726563 74.617188 C 98.96875 74.941406 99.125 75.265625 99.339844 75.5625 C 99.496094 75.789063 99.699219 76 99.898438 76.226563 C 100.058594 76.421875 100.214844 76.621094 100.414063 76.761719 C 100.699219 76.988281 100.839844 76.945313 100.753906 76.574219 C 100.605469 76.023438 100.40625 75.515625 100.203125 74.960938 C 100.058594 74.566406 99.929688 74.125 99.796875 73.730469 C 99.652344 73.417969 99.523438 73.121094 99.394531 72.8125 "/>
<path style=" stroke:none;fill-rule:evenodd;fill:rgb(94.499207%,66.699219%,13.299561%);fill-opacity:1;" d="M 43.660156 75.589844 C 43.582031 75.296875 43.519531 74.921875 43.574219 74.644531 C 43.6875 74.03125 44.359375 74.066406 44.640625 74.539063 C 45 75.1875 45.222656 75.996094 45.484375 76.785156 C 45.664063 77.375 45.886719 77.964844 46.105469 78.515625 C 46.246094 78.910156 46.367188 79.34375 46.570313 79.695313 C 46.808594 80.109375 46.984375 80.046875 46.980469 79.535156 C 46.980469 79.398438 46.960938 79.242188 46.917969 79.023438 C 46.695313 77.863281 46.449219 76.71875 46.226563 75.554688 C 46.082031 74.945313 45.902344 74.332031 45.761719 73.722656 C 45.675781 73.113281 46.109375 72.734375 46.503906 72.890625 C 46.976563 73.0625 47.183594 74.03125 47.304688 74.445313 C 47.503906 75.132813 47.707031 75.902344 47.890625 76.570313 C 48.054688 77.417969 48.257813 78.207031 48.558594 78.992188 C 48.738281 79.425781 49.011719 79.34375 48.988281 78.792969 C 48.964844 77.90625 49.015625 76.859375 48.953125 75.992188 C 48.925781 75.320313 48.664063 74.632813 48.738281 73.960938 C 48.777344 73.546875 48.953125 73.269531 49.167969 73.207031 C 49.878906 72.964844 50.085938 74.386719 50.148438 74.757813 C 50.253906 75.707031 50.257813 76.890625 50.382813 77.816406 C 50.449219 78.664063 50.574219 79.53125 50.835938 80.378906 C 51.097656 80.988281 51.433594 81.222656 51.785156 80.84375 C 52.175781 80.429688 52.210938 79.757813 52.425781 79.226563 C 52.5625 78.867188 52.71875 78.550781 52.914063 78.292969 C 53.226563 77.875 53.835938 77.417969 54.386719 77.453125 C 54.800781 77.453125 55.019531 77.746094 54.765625 78.203125 C 54.472656 78.757813 54.183594 79.171875 53.988281 79.804688 C 53.757813 80.558594 53.585938 81.425781 53.351563 82.296875 C 53.007813 83.523438 52.40625 85.144531 51.5625 86.09375 C 51.113281 86.574219 50.582031 86.871094 49.972656 87.015625 C 49.046875 87.199219 48.179688 87.300781 47.464844 87.167969 C 46.398438 86.957031 45.820313 86.035156 45.382813 85.132813 C 44.960938 84.246094 44.558594 83.144531 44.15625 82.277344 C 43.441406 81.257813 42.78125 80.234375 42.066406 79.234375 C 41.089844 77.523438 42.132813 77.300781 42.730469 78.105469 C 43.070313 78.554688 43.289063 79.007813 43.585938 79.421875 C 43.804688 79.734375 44.085938 80.027344 44.363281 80.34375 C 44.582031 80.617188 44.800781 80.894531 45.078125 81.089844 C 45.476563 81.402344 45.671875 81.339844 45.550781 80.828125 C 45.347656 80.058594 45.066406 79.351563 44.785156 78.582031 C 44.585938 78.035156 44.402344 77.421875 44.222656 76.871094 C 44.019531 76.4375 43.839844 76.023438 43.660156 75.589844 "/>
<path style=" stroke:none;fill-rule:evenodd;fill:rgb(65.499878%,66.299438%,67.098999%);fill-opacity:1;" d="M 113.324219 103.261719 C 117.503906 103.234375 120.90625 99.78125 120.878906 95.605469 C 120.847656 91.429688 117.402344 88.074219 113.226563 88.101563 C 109.046875 88.128906 105.644531 91.53125 105.671875 95.707031 C 105.699219 99.882813 109.148438 103.289063 113.324219 103.261719 "/>
<path style=" stroke:none;fill-rule:evenodd;fill:rgb(2.69928%,57.598877%,26.699829%);fill-opacity:1;" d="M 87.210938 167.347656 C 93.921875 167.335938 100.738281 167.796875 107.507813 168.832031 C 95.988281 159.761719 88.957031 150.71875 88.523438 141.757813 C 88 130.292969 96.027344 123.1875 106.132813 120.558594 C 116.882813 117.734375 123.941406 119.222656 129.742188 95.601563 C 122.117188 105.074219 113.519531 113.527344 98.984375 114.902344 C 104.476563 92.953125 100.140625 76.511719 88.394531 64.15625 C 90.871094 70.675781 92.519531 77.074219 93.328125 83.285156 C 94.945313 95.511719 93.214844 105.203125 87.648438 116.195313 C 82.019531 127.191406 79.125 135.539063 80.746094 148.21875 C 81.59375 154.863281 83.714844 161.253906 87.210938 167.347656 "/>
<g clip-path="url(#clip1)" clip-rule="nonzero">
<path style=" stroke:none;fill-rule:evenodd;fill:rgb(0%,37.599182%,68.199158%);fill-opacity:1;" d="M 58.152344 170.71875 C 66.164063 168.8125 74.804688 167.699219 83.722656 167.453125 C 77.757813 151.195313 75.542969 135.273438 81.039063 120.21875 C 79.050781 124.851563 74.46875 128.089844 69.15625 128.125 C 65.824219 128.148438 62.777344 126.894531 60.460938 124.820313 C 59.238281 123.726563 52.566406 117.121094 52.15625 107.78125 C 51.714844 118.613281 54.273438 127.757813 59.386719 135.351563 C 64.109375 142.304688 70.730469 145.144531 69.769531 154.828125 C 69.144531 160.929688 64.808594 166.109375 58.152344 170.71875 "/>
</g>
<path style=" stroke:none;fill-rule:evenodd;fill:rgb(65.499878%,66.299438%,67.098999%);fill-opacity:1;" d="M 69.125 123.035156 C 73.472656 123.007813 77.035156 119.457031 77.007813 115.050781 C 76.976563 110.699219 73.367188 107.136719 69.019531 107.164063 C 64.667969 107.195313 61.105469 110.804688 61.132813 115.152344 C 61.164063 119.5625 64.773438 123.066406 69.125 123.035156 "/>
<path style=" stroke:none;fill-rule:evenodd;fill:rgb(0%,37.599182%,68.199158%);fill-opacity:1;" d="M 83 -0.00390625 C 83 -0.00390625 78.089844 2.730469 78.089844 9.449219 C 78.089844 14.230469 80.539063 16.917969 81.972656 18.113281 L 82.917969 3.84375 L 83.882813 18.367188 C 85.25 17.433594 87.75 15.125 87.75 10.476563 C 87.75 4.097656 83 -0.00390625 83 -0.00390625 "/>
<path style=" stroke:none;fill-rule:evenodd;fill:rgb(0%,37.599182%,68.199158%);fill-opacity:1;" d="M 114.882813 7.035156 C 114.882813 7.035156 109.273438 7.386719 106.378906 13.449219 C 104.316406 17.765625 105.371094 21.242188 106.152344 22.941406 L 113.148438 10.472656 L 107.761719 23.992188 C 109.398438 23.738281 112.652344 22.734375 114.652344 18.535156 C 117.402344 12.78125 114.882813 7.035156 114.882813 7.035156 "/>
<path style=" stroke:none;fill-rule:evenodd;fill:rgb(0%,37.599182%,68.199158%);fill-opacity:1;" d="M 139.316406 22.015625 C 139.316406 22.015625 133.769531 21.089844 129.582031 26.34375 C 126.601563 30.082031 126.84375 33.710938 127.21875 35.539063 L 136.851563 24.972656 L 128.550781 36.925781 C 130.203125 37.050781 133.597656 36.804688 136.496094 33.167969 C 140.472656 28.179688 139.316406 22.015625 139.316406 22.015625 "/>
<path style=" stroke:none;fill-rule:evenodd;fill:rgb(0%,37.599182%,68.199158%);fill-opacity:1;" d="M 159.429688 51.183594 C 159.429688 51.183594 154.996094 47.730469 148.808594 50.355469 C 144.40625 52.222656 142.890625 55.523438 142.351563 57.3125 L 155.855469 52.609375 L 142.863281 59.167969 C 144.257813 60.0625 147.355469 61.464844 151.636719 59.648438 C 157.511719 57.15625 159.429688 51.183594 159.429688 51.183594 "/>
<path style=" stroke:none;fill-rule:evenodd;fill:rgb(0%,37.599182%,68.199158%);fill-opacity:1;" d="M 165.839844 82.984375 C 165.839844 82.984375 163.105469 78.070313 156.386719 78.070313 C 151.605469 78.070313 148.917969 80.519531 147.722656 81.953125 L 161.988281 82.902344 L 147.46875 83.863281 C 148.402344 85.230469 150.710938 87.730469 155.359375 87.730469 C 161.738281 87.730469 165.839844 82.984375 165.839844 82.984375 "/>
<path style=" stroke:none;fill-rule:evenodd;fill:rgb(0%,37.599182%,68.199158%);fill-opacity:1;" d="M 50.957031 7.035156 C 50.957031 7.035156 56.566406 7.386719 59.460938 13.449219 C 61.519531 17.765625 60.46875 21.242188 59.6875 22.941406 L 52.6875 10.472656 L 58.074219 23.992188 C 56.4375 23.738281 53.1875 22.734375 51.183594 18.535156 C 48.4375 12.78125 50.957031 7.035156 50.957031 7.035156 "/>
<path style=" stroke:none;fill-rule:evenodd;fill:rgb(0%,37.599182%,68.199158%);fill-opacity:1;" d="M 26.523438 22.015625 C 26.523438 22.015625 32.066406 21.089844 36.257813 26.34375 C 39.234375 30.082031 38.996094 33.710938 38.621094 35.539063 L 28.988281 24.972656 L 37.285156 36.925781 C 35.636719 37.050781 32.238281 36.804688 29.34375 33.167969 C 25.367188 28.179688 26.523438 22.015625 26.523438 22.015625 "/>
<path style=" stroke:none;fill-rule:evenodd;fill:rgb(0%,37.599182%,68.199158%);fill-opacity:1;" d="M 6.410156 51.183594 C 6.410156 51.183594 10.84375 47.730469 17.03125 50.355469 C 21.429688 52.222656 22.945313 55.523438 23.488281 57.3125 L 9.984375 52.609375 L 22.976563 59.167969 C 21.582031 60.0625 18.480469 61.464844 14.199219 59.648438 C 8.328125 57.15625 6.410156 51.183594 6.410156 51.183594 "/>
<path style=" stroke:none;fill-rule:evenodd;fill:rgb(0%,37.599182%,68.199158%);fill-opacity:1;" d="M 0 82.984375 C 0 82.984375 2.734375 78.070313 9.453125 78.070313 C 14.234375 78.070313 16.917969 80.519531 18.117188 81.953125 L 3.847656 82.902344 L 18.371094 83.863281 C 17.4375 85.230469 15.128906 87.730469 10.480469 87.730469 C 4.101563 87.730469 0 82.984375 0 82.984375 "/>
<path style=" stroke:none;fill-rule:nonzero;fill:rgb(2.69928%,57.598877%,26.699829%);fill-opacity:1;" d="M 144.632813 156.058594 L 147.027344 156.058594 C 148.339844 156.058594 149.3125 155.75 149.941406 155.132813 C 150.570313 154.515625 150.886719 153.640625 150.886719 152.507813 C 150.886719 151.375 150.539063 150.578125 149.84375 150.113281 C 149.152344 149.648438 148.160156 149.417969 146.871094 149.417969 L 144.632813 149.417969 Z M 137.988281 169.265625 L 137.988281 144.164063 L 147.179688 144.164063 C 148.546875 144.164063 149.84375 144.300781 151.082031 144.570313 C 152.316406 144.839844 153.398438 145.304688 154.324219 145.960938 C 155.25 146.617188 155.988281 147.480469 156.546875 148.546875 C 157.097656 149.617188 157.375 150.9375 157.375 152.507813 C 157.375 154.050781 157.097656 155.375 156.546875 156.484375 C 155.988281 157.589844 155.25 158.5 154.324219 159.207031 C 153.398438 159.914063 152.328125 160.441406 151.121094 160.789063 C 149.910156 161.136719 148.648438 161.308594 147.335938 161.308594 L 144.632813 161.308594 L 144.632813 169.265625 "/>
<path style=" stroke:none;fill-rule:nonzero;fill:rgb(2.69928%,57.598877%,26.699829%);fill-opacity:1;" d="M 167.722656 155.59375 L 170.117188 155.59375 C 172.796875 155.59375 174.132813 154.488281 174.132813 152.273438 C 174.132813 151.195313 173.792969 150.449219 173.109375 150.035156 C 172.429688 149.625 171.429688 149.417969 170.117188 149.417969 L 167.722656 149.417969 Z M 161.082031 169.265625 L 161.082031 144.164063 L 170.582031 144.164063 C 171.917969 144.164063 173.199219 144.296875 174.421875 144.550781 C 175.644531 144.808594 176.714844 145.246094 177.628906 145.867188 C 178.542969 146.484375 179.269531 147.3125 179.8125 148.355469 C 180.351563 149.398438 180.621094 150.703125 180.621094 152.273438 C 180.621094 154.078125 180.253906 155.570313 179.519531 156.753906 C 178.785156 157.9375 177.800781 158.867188 176.566406 159.535156 L 182.011719 169.265625 L 174.597656 169.265625 L 170.273438 160.847656 L 167.722656 160.847656 L 167.722656 169.265625 "/>
<path style=" stroke:none;fill-rule:nonzero;fill:rgb(2.69928%,57.598877%,26.699829%);fill-opacity:1;" d="M 195.601563 164.011719 C 197.121094 164.011719 198.3125 163.351563 199.175781 162.027344 C 200.035156 160.699219 200.46875 158.890625 200.46875 156.597656 C 200.46875 154.308594 200.035156 152.539063 199.175781 151.289063 C 198.3125 150.042969 197.121094 149.417969 195.601563 149.417969 C 194.085938 149.417969 192.894531 150.042969 192.03125 151.289063 C 191.167969 152.539063 190.738281 154.308594 190.738281 156.597656 C 190.738281 158.890625 191.167969 160.699219 192.03125 162.027344 C 192.894531 163.351563 194.085938 164.011719 195.601563 164.011719 M 195.601563 169.726563 C 193.851563 169.726563 192.261719 169.433594 190.835938 168.839844 C 189.40625 168.25 188.183594 167.390625 187.164063 166.273438 C 186.148438 165.152344 185.355469 163.777344 184.789063 162.140625 C 184.222656 160.507813 183.941406 158.660156 183.941406 156.597656 C 183.941406 154.539063 184.222656 152.707031 184.789063 151.097656 C 185.355469 149.488281 186.148438 148.136719 187.164063 147.042969 C 188.183594 145.949219 189.40625 145.117188 190.835938 144.550781 C 192.261719 143.988281 193.851563 143.703125 195.601563 143.703125 C 197.328125 143.703125 198.910156 143.988281 200.351563 144.550781 C 201.792969 145.117188 203.023438 145.953125 204.039063 147.0625 C 205.058594 148.167969 205.847656 149.519531 206.414063 151.117188 C 206.980469 152.710938 207.265625 154.539063 207.265625 156.597656 C 207.265625 158.660156 206.980469 160.507813 206.414063 162.140625 C 205.847656 163.777344 205.058594 165.152344 204.039063 166.273438 C 203.023438 167.390625 201.792969 168.25 200.351563 168.839844 C 198.910156 169.433594 197.328125 169.726563 195.601563 169.726563 "/>
<path style=" stroke:none;fill-rule:nonzero;fill:rgb(2.69928%,57.598877%,26.699829%);fill-opacity:1;" d="M 222.941406 169.726563 C 221.191406 169.726563 219.542969 169.464844 218 168.9375 C 216.453125 168.410156 215.109375 167.613281 213.964844 166.542969 C 212.816406 165.472656 211.917969 164.136719 211.261719 162.527344 C 210.605469 160.917969 210.277344 159.046875 210.277344 156.910156 C 210.277344 154.796875 210.609375 152.925781 211.28125 151.289063 C 211.949219 149.65625 212.855469 148.277344 214.003906 147.160156 C 215.148438 146.039063 216.480469 145.183594 218 144.589844 C 219.515625 144 221.113281 143.703125 222.785156 143.703125 C 224.640625 143.703125 226.242188 144.03125 227.59375 144.6875 C 228.945313 145.34375 230.074219 146.125 230.972656 147.023438 L 227.5 151.269531 C 226.878906 150.730469 226.230469 150.285156 225.546875 149.9375 C 224.867188 149.589844 224.023438 149.417969 223.019531 149.417969 C 222.171875 149.417969 221.382813 149.585938 220.664063 149.917969 C 219.941406 150.253906 219.3125 150.730469 218.769531 151.347656 C 218.230469 151.964844 217.8125 152.726563 217.515625 153.625 C 217.21875 154.527344 217.074219 155.542969 217.074219 156.675781 C 217.074219 159.046875 217.597656 160.859375 218.65625 162.121094 C 219.710938 163.382813 221.371094 164.011719 223.636719 164.011719 C 223.996094 164.011719 224.351563 163.976563 224.699219 163.898438 C 225.046875 163.820313 225.335938 163.707031 225.566406 163.550781 L 225.566406 160.074219 L 221.859375 160.074219 L 221.859375 154.667969 L 231.4375 154.667969 L 231.4375 166.640625 C 230.535156 167.488281 229.339844 168.214844 227.847656 168.820313 C 226.351563 169.425781 224.71875 169.726563 222.941406 169.726563 "/>
<path style=" stroke:none;fill-rule:nonzero;fill:rgb(2.69928%,57.598877%,26.699829%);fill-opacity:1;" d="M 242.558594 155.59375 L 244.953125 155.59375 C 247.628906 155.59375 248.96875 154.488281 248.96875 152.273438 C 248.96875 151.195313 248.625 150.449219 247.945313 150.035156 C 247.261719 149.625 246.265625 149.417969 244.953125 149.417969 L 242.558594 149.417969 Z M 235.914063 169.265625 L 235.914063 144.164063 L 245.414063 144.164063 C 246.753906 144.164063 248.035156 144.296875 249.257813 144.550781 C 250.480469 144.808594 251.546875 145.246094 252.460938 145.867188 C 253.375 146.484375 254.105469 147.3125 254.644531 148.355469 C 255.183594 149.398438 255.453125 150.703125 255.453125 152.273438 C 255.453125 154.078125 255.089844 155.570313 254.355469 156.753906 C 253.621094 157.9375 252.636719 158.867188 251.402344 159.535156 L 256.84375 169.265625 L 249.429688 169.265625 L 245.105469 160.847656 L 242.558594 160.847656 L 242.558594 169.265625 "/>
<path style=" stroke:none;fill-rule:nonzero;fill:rgb(2.69928%,57.598877%,26.699829%);fill-opacity:1;" d="M 267.179688 157.0625 L 266.753906 158.800781 L 271.386719 158.800781 L 270.960938 157.0625 C 270.652344 155.851563 270.34375 154.539063 270.035156 153.125 C 269.726563 151.707031 269.417969 150.371094 269.109375 149.109375 L 268.953125 149.109375 C 268.671875 150.394531 268.382813 151.742188 268.085938 153.144531 C 267.789063 154.546875 267.488281 155.851563 267.179688 157.0625 M 257.523438 169.265625 L 265.171875 144.167969 L 273.203125 144.167969 L 280.847656 169.265625 L 273.820313 169.265625 L 272.585938 163.9375 L 265.554688 163.9375 L 264.320313 169.265625 "/>
<g clip-path="url(#clip2)" clip-rule="nonzero">
<path style=" stroke:none;fill-rule:nonzero;fill:rgb(2.69928%,57.598877%,26.699829%);fill-opacity:1;" d="M 282.855469 169.265625 L 282.855469 144.164063 L 289.960938 144.164063 L 293.746094 154.4375 C 293.976563 155.132813 294.195313 155.851563 294.402344 156.597656 C 294.605469 157.347656 294.828125 158.09375 295.058594 158.839844 L 295.210938 158.839844 C 295.445313 158.09375 295.664063 157.347656 295.871094 156.597656 C 296.074219 155.851563 296.292969 155.132813 296.527344 154.4375 L 300.15625 144.164063 L 307.261719 144.164063 L 307.261719 169.265625 L 301.238281 169.265625 L 301.238281 161.851563 C 301.238281 161.207031 301.269531 160.5 301.335938 159.726563 C 301.398438 158.953125 301.46875 158.164063 301.546875 157.351563 C 301.621094 156.542969 301.710938 155.75 301.816406 154.976563 C 301.917969 154.207031 302.007813 153.511719 302.085938 152.890625 L 301.929688 152.890625 L 299.847656 158.914063 L 296.757813 167.21875 L 293.203125 167.21875 L 290.113281 158.914063 L 288.109375 152.890625 L 287.953125 152.890625 C 288.03125 153.511719 288.121094 154.207031 288.222656 154.976563 C 288.324219 155.75 288.417969 156.542969 288.492188 157.351563 C 288.570313 158.164063 288.640625 158.953125 288.707031 159.726563 C 288.769531 160.5 288.800781 161.207031 288.800781 161.851563 L 288.800781 169.265625 "/>
</g>
<path style=" stroke:none;fill-rule:nonzero;fill:rgb(92.498779%,6.298828%,53.29895%);fill-opacity:1;" d="M 143.15625 138.25 L 137.988281 120.757813 L 142.886719 120.757813 L 144.71875 128.402344 C 144.96875 129.332031 145.183594 130.253906 145.363281 131.160156 C 145.542969 132.066406 145.757813 132.992188 146.011719 133.945313 L 146.117188 133.945313 C 146.367188 132.992188 146.589844 132.066406 146.777344 131.160156 C 146.964844 130.253906 147.175781 129.332031 147.410156 128.402344 L 149.1875 120.757813 L 153.921875 120.757813 L 148.757813 138.25 "/>
<path style=" stroke:none;fill-rule:nonzero;fill:rgb(92.498779%,6.298828%,53.29895%);fill-opacity:1;" d="M 162.425781 134.589844 C 163.484375 134.589844 164.316406 134.128906 164.917969 133.203125 C 165.519531 132.28125 165.820313 131.019531 165.820313 129.421875 C 165.820313 127.828125 165.519531 126.59375 164.917969 125.722656 C 164.316406 124.855469 163.484375 124.417969 162.425781 124.417969 C 161.367188 124.417969 160.539063 124.855469 159.9375 125.722656 C 159.335938 126.59375 159.035156 127.828125 159.035156 129.421875 C 159.035156 131.019531 159.335938 132.28125 159.9375 133.203125 C 160.539063 134.128906 161.367188 134.589844 162.425781 134.589844 M 162.425781 138.574219 C 161.207031 138.574219 160.097656 138.367188 159.105469 137.957031 C 158.109375 137.542969 157.253906 136.945313 156.546875 136.164063 C 155.835938 135.382813 155.285156 134.425781 154.890625 133.285156 C 154.496094 132.148438 154.300781 130.859375 154.300781 129.421875 C 154.300781 127.988281 154.496094 126.710938 154.890625 125.589844 C 155.285156 124.46875 155.835938 123.527344 156.546875 122.761719 C 157.253906 122 158.109375 121.421875 159.105469 121.027344 C 160.097656 120.632813 161.207031 120.4375 162.425781 120.4375 C 163.628906 120.4375 164.734375 120.632813 165.738281 121.027344 C 166.742188 121.421875 167.597656 122.003906 168.308594 122.777344 C 169.015625 123.546875 169.570313 124.488281 169.964844 125.601563 C 170.359375 126.714844 170.554688 127.988281 170.554688 129.421875 C 170.554688 130.859375 170.359375 132.148438 169.964844 133.285156 C 169.570313 134.425781 169.015625 135.382813 168.308594 136.164063 C 167.597656 136.945313 166.742188 137.542969 165.738281 137.957031 C 164.734375 138.367188 163.628906 138.574219 162.425781 138.574219 "/>
<path style=" stroke:none;fill-rule:nonzero;fill:rgb(92.498779%,6.298828%,53.29895%);fill-opacity:1;" d="M 173.410156 138.25 L 173.410156 120.757813 L 178.039063 120.757813 L 178.039063 134.375 L 184.660156 134.375 L 184.660156 138.25 "/>
<path style=" stroke:none;fill-rule:nonzero;fill:rgb(92.498779%,6.298828%,53.29895%);fill-opacity:1;" d="M 193.488281 138.574219 C 191.027344 138.574219 189.203125 137.859375 188.007813 136.433594 C 186.816406 135.007813 186.21875 132.796875 186.21875 129.800781 L 186.21875 120.757813 L 190.847656 120.757813 L 190.847656 130.339844 C 190.847656 131.898438 191.058594 133 191.480469 133.636719 C 191.902344 134.273438 192.570313 134.589844 193.488281 134.589844 C 194.402344 134.589844 195.078125 134.273438 195.519531 133.636719 C 195.957031 133 196.175781 131.898438 196.175781 130.339844 L 196.175781 120.757813 L 200.644531 120.757813 L 200.644531 129.800781 C 200.644531 132.796875 200.0625 135.007813 198.894531 136.433594 C 197.730469 137.859375 195.925781 138.574219 193.488281 138.574219 "/>
<path style=" stroke:none;fill-rule:nonzero;fill:rgb(92.498779%,6.298828%,53.29895%);fill-opacity:1;" d="M 204.144531 138.25 L 204.144531 120.757813 L 208.878906 120.757813 L 212.753906 128.5625 L 214.421875 132.492188 L 214.53125 132.492188 C 214.476563 132.027344 214.414063 131.515625 214.34375 130.957031 C 214.273438 130.402344 214.207031 129.832031 214.15625 129.25 C 214.101563 128.664063 214.050781 128.082031 214.007813 127.5 C 213.960938 126.917969 213.941406 126.355469 213.941406 125.816406 L 213.941406 120.757813 L 218.351563 120.757813 L 218.351563 138.25 L 213.617188 138.25 L 209.742188 130.417969 L 208.074219 126.519531 L 207.964844 126.519531 C 208.074219 127.523438 208.199219 128.617188 208.339844 129.800781 C 208.484375 130.984375 208.554688 132.113281 208.554688 133.191406 L 208.554688 138.25 "/>
<path style=" stroke:none;fill-rule:nonzero;fill:rgb(92.498779%,6.298828%,53.29895%);fill-opacity:1;" d="M 225.296875 138.25 L 225.296875 124.632813 L 220.667969 124.632813 L 220.667969 120.757813 L 234.554688 120.757813 L 234.554688 124.632813 L 229.925781 124.632813 L 229.925781 138.25 "/>
<path style=" stroke:none;fill-rule:nonzero;fill:rgb(92.498779%,6.298828%,53.29895%);fill-opacity:1;" d="M 236.871094 138.25 L 236.871094 120.757813 L 248.171875 120.757813 L 248.171875 124.632813 L 241.5 124.632813 L 241.5 127.378906 L 247.203125 127.378906 L 247.203125 131.253906 L 241.5 131.253906 L 241.5 134.375 L 248.441406 134.375 L 248.441406 138.25 "/>
<path style=" stroke:none;fill-rule:nonzero;fill:rgb(92.498779%,6.298828%,53.29895%);fill-opacity:1;" d="M 251.566406 138.25 L 251.566406 120.757813 L 262.867188 120.757813 L 262.867188 124.632813 L 256.195313 124.632813 L 256.195313 127.378906 L 261.898438 127.378906 L 261.898438 131.253906 L 256.195313 131.253906 L 256.195313 134.375 L 263.136719 134.375 L 263.136719 138.25 "/>
<path style=" stroke:none;fill-rule:nonzero;fill:rgb(92.498779%,6.298828%,53.29895%);fill-opacity:1;" d="M 270.890625 128.722656 L 272.558594 128.722656 C 274.421875 128.722656 275.355469 127.953125 275.355469 126.410156 C 275.355469 125.65625 275.117188 125.136719 274.644531 124.847656 C 274.167969 124.5625 273.472656 124.417969 272.558594 124.417969 L 270.890625 124.417969 Z M 266.261719 138.25 L 266.261719 120.757813 L 272.878906 120.757813 C 273.8125 120.757813 274.703125 120.847656 275.558594 121.027344 C 276.410156 121.207031 277.15625 121.511719 277.792969 121.941406 C 278.429688 122.371094 278.9375 122.953125 279.3125 123.679688 C 279.691406 124.40625 279.878906 125.316406 279.878906 126.410156 C 279.878906 127.664063 279.621094 128.707031 279.113281 129.53125 C 278.601563 130.355469 277.914063 131 277.050781 131.46875 L 280.847656 138.25 L 275.679688 138.25 L 272.664063 132.382813 L 270.890625 132.382813 L 270.890625 138.25 "/>
<path style=" stroke:none;fill-rule:nonzero;fill:rgb(0%,37.599182%,68.199158%);fill-opacity:1;" d="M 143.371094 108.910156 L 143.136719 109.878906 L 145.71875 109.878906 L 145.480469 108.910156 C 145.308594 108.234375 145.136719 107.503906 144.964844 106.714844 C 144.789063 105.925781 144.617188 105.179688 144.445313 104.476563 L 144.359375 104.476563 C 144.203125 105.195313 144.039063 105.941406 143.875 106.726563 C 143.710938 107.507813 143.542969 108.234375 143.371094 108.910156 M 137.992188 115.710938 L 142.253906 101.722656 L 146.730469 101.722656 L 150.988281 115.710938 L 147.074219 115.710938 L 146.382813 112.742188 L 142.46875 112.742188 L 141.777344 115.710938 "/>
<path style=" stroke:none;fill-rule:nonzero;fill:rgb(0%,37.599182%,68.199158%);fill-opacity:1;" d="M 152.109375 115.710938 L 152.109375 101.722656 L 155.8125 101.722656 L 155.8125 112.613281 L 161.105469 112.613281 L 161.105469 115.710938 "/>
<path style=" stroke:none;fill-rule:nonzero;fill:rgb(0%,37.599182%,68.199158%);fill-opacity:1;" d="M 163.300781 115.710938 L 163.300781 101.722656 L 167.003906 101.722656 L 167.003906 106.929688 L 167.089844 106.929688 L 170.617188 101.722656 L 174.664063 101.722656 L 170.488281 107.402344 L 175.484375 115.710938 L 171.4375 115.710938 L 168.335938 110.332031 L 167.003906 112.226563 L 167.003906 115.710938 "/>
<path style=" stroke:none;fill-rule:nonzero;fill:rgb(0%,37.599182%,68.199158%);fill-opacity:1;" d="M 176.601563 115.710938 L 176.601563 101.722656 L 180.304688 101.722656 L 180.304688 106.929688 L 184.476563 106.929688 L 184.476563 101.722656 L 188.179688 101.722656 L 188.179688 115.710938 L 184.476563 115.710938 L 184.476563 110.15625 L 180.304688 110.15625 L 180.304688 115.710938 "/>
<path style=" stroke:none;fill-rule:nonzero;fill:rgb(0%,37.599182%,68.199158%);fill-opacity:1;" d="M 191.066406 115.710938 L 194.765625 115.710938 L 194.765625 101.71875 L 191.066406 101.71875 Z M 191.066406 115.710938 "/>
<path style=" stroke:none;fill-rule:nonzero;fill:rgb(0%,37.599182%,68.199158%);fill-opacity:1;" d="M 201.351563 112.742188 L 201.566406 112.742188 C 202.070313 112.742188 202.542969 112.679688 202.988281 112.558594 C 203.433594 112.4375 203.816406 112.222656 204.140625 111.921875 C 204.460938 111.621094 204.714844 111.203125 204.902344 110.675781 C 205.089844 110.144531 205.183594 109.46875 205.183594 108.652344 C 205.183594 107.835938 205.089844 107.167969 204.902344 106.648438 C 204.714844 106.132813 204.460938 105.730469 204.140625 105.445313 C 203.816406 105.15625 203.433594 104.960938 202.988281 104.851563 C 202.542969 104.746094 202.070313 104.691406 201.566406 104.691406 L 201.351563 104.691406 Z M 197.648438 115.710938 L 197.648438 101.71875 L 201.78125 101.71875 C 202.84375 101.71875 203.816406 101.851563 204.699219 102.109375 C 205.582031 102.367188 206.335938 102.777344 206.96875 103.335938 C 207.601563 103.894531 208.09375 104.613281 208.445313 105.488281 C 208.792969 106.363281 208.96875 107.417969 208.96875 108.652344 C 208.96875 109.886719 208.796875 110.945313 208.453125 111.835938 C 208.109375 112.726563 207.625 113.457031 207 114.03125 C 206.378906 114.605469 205.636719 115.027344 204.785156 115.300781 C 203.929688 115.574219 203 115.710938 201.996094 115.710938 "/>
<path style=" stroke:none;fill-rule:nonzero;fill:rgb(0%,37.599182%,68.199158%);fill-opacity:1;" d="M 211.253906 115.710938 L 211.253906 101.722656 L 215.214844 101.722656 L 217.320313 107.445313 C 217.449219 107.832031 217.570313 108.234375 217.6875 108.652344 C 217.800781 109.066406 217.925781 109.484375 218.050781 109.898438 L 218.140625 109.898438 C 218.269531 109.484375 218.390625 109.066406 218.503906 108.652344 C 218.621094 108.234375 218.742188 107.832031 218.871094 107.445313 L 220.894531 101.722656 L 224.855469 101.722656 L 224.855469 115.710938 L 221.496094 115.710938 L 221.496094 111.578125 C 221.496094 111.21875 221.515625 110.824219 221.550781 110.394531 C 221.585938 109.964844 221.625 109.523438 221.667969 109.070313 C 221.714844 108.617188 221.761719 108.175781 221.820313 107.746094 C 221.878906 107.316406 221.925781 106.929688 221.96875 106.585938 L 221.882813 106.585938 L 220.722656 109.941406 L 219 114.570313 L 217.019531 114.570313 L 215.296875 109.941406 L 214.179688 106.585938 L 214.09375 106.585938 C 214.136719 106.929688 214.1875 107.316406 214.242188 107.746094 C 214.300781 108.175781 214.351563 108.617188 214.394531 109.070313 C 214.4375 109.523438 214.476563 109.964844 214.511719 110.394531 C 214.546875 110.824219 214.566406 111.21875 214.566406 111.578125 L 214.566406 115.710938 "/>
<path style=" stroke:none;fill-rule:nonzero;fill:rgb(0%,37.599182%,68.199158%);fill-opacity:1;" d="M 231.355469 108.910156 L 231.117188 109.878906 L 233.699219 109.878906 L 233.464844 108.910156 C 233.289063 108.234375 233.117188 107.503906 232.945313 106.714844 C 232.773438 105.925781 232.601563 105.179688 232.429688 104.476563 L 232.34375 104.476563 C 232.1875 105.195313 232.023438 105.941406 231.859375 106.726563 C 231.695313 107.507813 231.527344 108.234375 231.355469 108.910156 M 225.972656 115.710938 L 230.234375 101.722656 L 234.710938 101.722656 L 238.972656 115.710938 L 235.054688 115.710938 L 234.367188 112.742188 L 230.449219 112.742188 L 229.761719 115.710938 "/>
<path style=" stroke:none;fill-rule:nonzero;fill:rgb(0%,37.599182%,68.199158%);fill-opacity:1;" d="M 241.039063 115.710938 L 241.039063 104.820313 L 237.339844 104.820313 L 237.339844 101.722656 L 248.441406 101.722656 L 248.441406 104.820313 L 244.742188 104.820313 L 244.742188 115.710938 "/>
</g>
</svg>
